<?xml version="1.0" encoding="UTF-8"?>
<svg width="164px" height="51px" viewBox="0 0 164 51" version="1.1" xmlns="http://www.w3.org/2000/svg" xmlns:xlink="http://www.w3.org/1999/xlink">
    <title>Artboard</title>
    <g id="Artboard" stroke="none" stroke-width="1" fill="none" fill-rule="evenodd">
        <g id="Calque_1" transform="translate(0.000000, 6.000000)" fill="#2B2F32">
            <path d="M155.859352,10.973016 C155.546285,12.9075123 156.476356,14.6580814 157.907336,15.408139 C156.906824,20.7485488 152.88782,29.2900739 150.625907,29.2900739 C148.363995,29.2900739 150.104128,21.3655527 152.569535,11.9409164 C153.091314,9.92293543 147.78482,10.3755789 146.738652,12.1652814 C144.943732,21.7347115 140.982124,29.0617955 138.52063,29.0617955 C137.547512,29.0617955 137.398805,27.8656167 137.398805,26.8181451 C137.398805,22.5578181 139.716809,14.0345553 140.015528,12.239635 C140.316855,10.4773258 137.867102,10.8634424 136.262631,11.6474156 C135.763028,11.9148274 132.02448,13.7841013 130.206079,14.6476458 C129.097299,10.5464615 124.492597,11.0812852 123.567744,14.1871757 C122.895953,16.4269128 124.570864,17.8696322 126.27056,18.1709597 C126.181857,23.1382974 123.253372,29.438781 119.90355,29.438781 C115.717576,29.438781 117.661204,16.0564496 123.04466,12.7666319 C122.744637,11.0473695 120.502291,10.8230045 118.408652,11.7230736 C114.397475,13.4358137 111.904675,19.8902221 112.260789,25.2515031 C110.695452,27.6856029 109.130114,29.2170248 108.166127,29.2170248 C107.717397,29.2170248 107.194313,28.7695992 107.194313,27.6516873 C107.194313,24.5118811 108.759651,15.7642533 109.661024,9.93337101 C110.259766,5.74609314 109.512317,0.66265955 103.830142,0.66265955 C99.8476626,0.66265955 97.6261878,4.46773417 96.0125857,10.3821011 L93.587617,10.3821011 C92.5440586,10.3821011 91.9427081,13.0744816 93.0658378,13.1488352 C93.4284743,13.1814464 94.2985411,13.1853597 95.3251416,13.1801419 C95.0303364,14.493721 94.7537934,15.8842625 94.4863816,17.336113 C94.3463708,18.080518 94.2115779,18.8488378 94.0820027,19.6410725 C92.0470639,23.8974861 87.2884379,29.7466307 83.0476777,29.7466307 C81.0818746,29.7466307 80.3970395,27.3686221 80.5170487,24.4257875 C92.0457595,24.9384356 95.5873356,10.4590635 85.2900237,10.5321126 C79.1591184,10.5725505 75.3657838,17.0413078 74.9105314,23.0326372 C73.0738688,26.0837409 70.0175473,29.8157664 67.1973308,29.8157664 C61.216437,29.8157664 65.2537034,13.4423359 69.2844475,13.4423359 C71.0037099,13.4423359 70.6306378,16.20907 69.5831661,18.0783439 C69.9575426,20.4707014 73.770444,20.6950665 74.670513,16.6578001 C75.3423037,13.5923475 73.4743343,10.6012484 69.5114215,10.6012484 C62.9226549,10.6012484 58.7823372,17.9478991 58.7445082,24.2314248 C57.4804982,26.9877233 55.8368938,28.4695761 54.6341928,28.4695761 C53.6623791,28.4695761 53.5123676,27.3490554 54.7085463,20.7733333 C55.0072649,19.1284245 55.3059835,17.2591506 55.6060065,15.3155232 C56.0495188,12.5031334 54.8807334,10.8647468 52.4648959,10.8308312 C52.4648959,10.8308312 52.185744,10.8308312 52.0879104,10.8412668 C50.4012592,10.935187 48.1471732,11.6578512 45.7626424,13.3197178 C44.3277497,9.95945997 40.2474365,10.6260329 39.3825875,13.5923475 C38.7107969,15.9403537 40.385708,17.4130755 42.0854037,17.7222296 C41.9888745,22.8447967 39.0629978,29.3670363 35.7183933,29.3670363 C31.5324199,29.3670363 33.4760473,15.5398882 38.8581995,12.1718037 C38.5594809,10.3768833 36.3171349,10.1525183 34.223496,11.0499784 C26.9720699,14.1154311 24.7284195,33.0299261 34.8965911,33.0299261 C42.9593838,33.0299261 46.1004944,21.5938311 46.2557237,16.5403998 C47.5601716,15.5698905 49.0094133,14.8067885 49.8194755,14.7872218 L49.8494778,14.7872218 C50.2225499,14.7872218 50.3712569,14.9372333 50.2969034,15.3846589 C49.8468689,18.8231837 48.6559079,24.6540659 48.6559079,27.7938721 C48.6559079,31.0093363 49.5533681,33.0273172 52.3201021,33.0273172 C54.9185624,33.0273172 57.4818026,30.7236622 59.2336762,27.8095255 C60.1467897,30.828018 62.3891357,33.0273172 66.2268216,33.0273172 C70.0292873,33.0273172 73.0608243,29.9814313 75.1440276,27.0268567 C75.8679962,30.4445103 78.0138131,33.0273172 81.8528033,33.0273172 C87.1684287,33.0273172 91.0674235,28.7813392 93.3162918,24.8249486 C93.1780203,25.868507 93.0449666,26.9394587 92.9171307,28.0182372 C92.1696821,34.0747889 91.5722449,36.5414999 90.5991267,38.7147102 C90.1998655,39.6112937 89.7508719,40.4848932 89.2542409,41.3314328 C88.8798644,42.0045279 89.3285945,42.3032465 89.9273361,42.3032465 C91.2722219,42.3032465 93.4402143,41.4814443 94.7864046,39.2377938 C96.0569369,37.1506771 97.3287736,35.0518204 98.6736594,23.0143749 C98.9710736,20.4302635 99.374148,16.7021513 99.9546273,13.1462263 L101.440394,13.1462263 C102.786584,13.1462263 104.057116,10.6038572 102.483952,10.4551502 C102.207409,10.4290612 101.446916,10.4134078 100.446404,10.4016678 C101.2956,6.17003872 102.452645,2.75368959 104.054507,2.75368959 C105.549405,2.75368959 105.848123,5.07169356 105.176332,8.81024134 C104.054507,14.6411236 103.00834,21.9682076 102.55961,26.1593988 C102.037831,31.0928209 103.680131,33.0364484 106.446865,33.0364484 C108.626597,33.0364484 111.039826,31.040643 112.88562,28.4708806 C113.823518,31.1436944 115.80367,33.0364484 119.081747,33.0364484 C126.480576,33.0364484 129.735174,23.6979056 130.340437,18.3770625 C131.418626,18.0188993 132.473372,17.5936898 133.498506,17.1039213 C132.787582,20.7929001 132.239714,24.8562554 132.239714,27.2055661 C132.239714,30.6440908 133.958976,32.9620948 136.575699,32.9620948 C140.430342,32.9620948 143.073154,29.3305118 144.663276,26.3094104 C144.65284,30.289281 146.179044,33.0377528 149.806714,33.0377528 C157.656882,33.0377528 163.189045,17.1143569 163.189045,12.0296188 C163.186436,6.48832402 156.533752,6.71138462 155.859352,10.973016 Z M85.4335129,13.3653735 C88.575928,13.3653735 86.2592285,21.4868664 80.7635893,22.0138633 C81.4601645,17.7731031 83.4168364,13.3653735 85.4335129,13.3653735 L85.4335129,13.3653735 Z" id="Shape" fill-rule="nonzero"></path>
            <path d="M53.8828308,8.28193993 C58.2944737,8.28193993 59.2662874,0.65613731 54.6315839,0.65613731 C50.2942945,0.65613731 49.3981388,8.28193993 53.8828308,8.28193993 Z" id="Path"></path>
            <path d="M20.0884982,1.17922093 C21.509042,2.00102313 23.6013765,4.91646426 22.7795743,11.1973811 C21.433384,21.2155412 16.0512318,29.438781 14.2563115,29.438781 C13.2127531,29.438781 13.2844977,27.8734434 14.630688,22.0373434 C16.4243039,14.4115408 18.8923194,3.57157844 9.17287786,3.57157844 C-1.14400084,3.57157844 -2.41583757,14.6359058 4.23815133,15.9820961 C3.26633762,10.8230045 6.33179027,5.96393595 9.2472314,5.96393595 C12.3870376,5.96393595 11.0421518,12.0191833 9.76901057,18.5244651 C8.27411324,26.0746097 6.55485086,34.6722261 12.5357446,34.6722261 C20.8346424,34.6722261 27.0399012,19.3462673 28.1617264,11.1921633 C29.5861836,0.879197907 23.3052668,-1.88623171 20.0884982,1.17922093 Z" id="Path"></path>
        </g>
    </g>
</svg>